<svg version="1.1" id="Layer_1" xmlns="http://www.w3.org/2000/svg" xmlns:xlink="http://www.w3.org/1999/xlink" x="0px" y="0px" viewBox="0 0 274.2 68.8" style="enable-background:new 0 0 274.2 68.8;" xml:space="preserve">
<style type="text/css">
	.st0{fill:#2EAF5F;}
	.st1{fill:#32AF5F;}
	.st2{fill:#4C494B;}
</style>
<g>
	<g id="_x23_555555ff_4_">
		<path class="st0" d="M76.2,5c2.8-1.9,6.3-2.4,9.6-2.2c0.3,2.9,0.1,5.9,0.2,8.9c0,1.9,0.1,3.7-0.1,5.6c-3,0.1-6.1,0.5-8.7,2    c-3.3,1.7-5.6,5-6.5,8.6c-1,3.8-1,7.7-1,11.6c0,4.8,0.1,9.5,0,14.3c-4.6,0-9.2,0.1-13.8,0c-0.2-15.4,0-30.8-0.1-46.2    c0-1.3,0-2.5,0.1-3.8c2.8-0.3,5.5-0.1,8.3-0.2c1.8,0,3.7-0.1,5.5,0.1c0.1,3-0.1,6.1,0.1,9.1C71.4,9.9,73.3,6.9,76.2,5z"/>
		<path class="st0" d="M94.2,9.5c4.2-4.1,10-6.7,15.9-6.7c4.2-0.2,8.5,0.4,12.2,2.3c1.9,1.2,4,2.3,5.5,4c1.8,1.6,3.1,3.8,4.3,5.9    c0.9,2.2,1.9,4.3,2.3,6.6c1,3.9,1,7.9,0.8,11.9c-11.6,0.1-23.2,0-34.8,0c0.5,3.1,2.2,6.1,4.9,7.9c2.5,1.7,5.7,2.2,8.7,1.9    c2.4-0.1,4.7-0.8,6.8-2c1.6-0.8,2.8-2.1,4.3-3.1c2.7,2.3,5.4,4.7,8,7.1c-3.3,4.4-8.3,7.5-13.6,8.7c-5.4,1.2-11.2,1-16.5-0.8    c-3.5-1.4-6.8-3.4-9.5-6.1c-1.3-1.6-2.8-3.1-3.6-5c-2-3.4-3.1-7.2-3.2-11.1c-0.2-3.9,0.1-8,1.4-11.7C89.3,15.7,91.3,12.2,94.2,9.5     M104.1,16.8c-2.1,2.1-3.5,5-3.8,7.9c0.8,0.1,1.6,0.2,2.3,0.2c5.5,0,11,0,16.4,0c0.9,0,1.7-0.1,2.6-0.2c-0.3-2.9-1.6-5.7-3.6-7.9    C114.5,13.1,107.8,13.1,104.1,16.8z"/>
		<path class="st0" d="M151.2,5.2C155.7,2.8,161,2.5,166,3c2.9,0.4,5.8,1.2,8.3,2.8c1.2,0.8,2.5,1.4,3.5,2.5    c1.3,1.3,2.7,2.5,3.6,4.1c2.7,3.8,4,8.3,4.7,12.8c0.2,2.8,0.3,5.7,0.1,8.5c-11.6,0.1-23.2,0-34.8,0c0.5,3.6,2.7,6.9,6,8.5    c2.4,1.3,5.2,1.5,7.8,1.3c2.3-0.1,4.5-0.8,6.5-2c1.6-0.8,2.8-2.1,4.3-3.2c2.7,2.3,5.4,4.7,8,7.1c-2.9,3.8-7,6.6-11.5,8.2    c-6.3,1.9-13.2,1.8-19.3-0.6c-2.4-1.1-4.8-2.2-6.8-4c-1.8-1.2-3-3-4.3-4.6c-2.6-3.8-4.4-8.3-4.5-13c0-2.2-0.1-4.4,0.1-6.5    c0.8-6.4,4-12.5,9-16.6C147.9,7,149.6,6.2,151.2,5.2 M155,16.8c-2.1,2.1-3.5,4.9-3.8,7.9c1.7,0.3,3.5,0.2,5.3,0.2    c4.5,0,9,0,13.5,0c0.9,0,1.8-0.1,2.7-0.2c-0.2-2.9-1.5-5.6-3.4-7.7C165.6,13.1,158.8,13.1,155,16.8z"/>
		<path class="st0" d="M16.2,3.7c2.6-0.9,5.4-0.9,8.1-0.8C27.8,3,31.2,4.1,34,6.2c1.7,1,3,2.5,4.5,3.7c0.2-2-0.3-4.1,0.3-6.1    c1.4-0.4,2.9-0.1,4.3-0.2c3.1,0.1,6.2-0.2,9.3,0.1c0,0.7,0.1,1.3,0.1,2c0,12.2,0,24.3,0,36.5c0,1.6-0.2,3.2-0.3,4.7    c-0.1,2.5-0.7,5-1.4,7.5c-0.9,2-1.6,4-3,5.7c-1.1,1.5-2.4,3.1-4,4c-2.1,1.6-4.6,2.5-7.2,3.4c-5.8,1.6-11.8,1.5-17.8,1.1    c-2.9-0.5-5.8-0.9-8.6-1.9c-2.7-0.7-5.2-2-7.7-3.2c1.1-3,2.6-5.8,3.9-8.8c0.3-0.6,0.5-1.3,1.1-1.7c0.5,0.3,1,0.5,1.5,0.8    c4.2,2.3,8.9,3.6,13.7,3.8c3.3,0.2,6.7-0.1,9.6-1.6c2.4-1.2,4.3-3.3,5.2-5.8c1-2.6,1.2-5.5,1-8.3c-1.3,1.2-2.4,2.6-3.8,3.6    c-1.3,0.9-2.6,2-4.1,2.6c-2.1,1-4.5,1.3-6.8,1.6c-2,0.2-3.9-0.2-5.9-0.4c-4.6-0.9-9-3.1-12.1-6.6c-3.9-4.2-6-9.9-6-15.6    c-0.1-4.4,0.5-9,2.7-12.8C5.4,9.1,10.5,5.1,16.2,3.7 M23.8,14.6c-3.8,0.6-7.2,3.1-8.8,6.6c-1,2.4-1.4,5.1-0.8,7.6    c0.6,3.3,2.8,6.2,5.7,7.8c5.1,2.8,12,1.7,15.8-2.6c2.7-3,3.6-7.5,2.3-11.3c-0.9-3.1-3.2-5.7-6.2-7C29.4,14.4,26.5,14.2,23.8,14.6z    "/>
		<path class="st0" d="M207.1,6.4c3.1-2.6,7.2-3.8,11.2-3.6c4.2,0,8.6,1.3,11.7,4.4c3.5,3.5,4.8,8.6,5,13.4c0.1,4.2,0,8.4,0,12.5    c-0.1,6.8,0.1,13.7-0.1,20.5c-3.6,0.2-7.3,0-10.9,0.1c-1,0-1.9,0.1-2.9-0.1c-0.1-9.1,0-18.3-0.1-27.4c-0.2-2.5-0.3-5.1-1.7-7.3    c-1.3-2.2-3.9-3.5-6.4-3.6c-2.7-0.2-5.5,0.6-7.3,2.6c-1.9,2-2.4,4.9-2.6,7.6c-0.1,9.4,0.1,18.7-0.1,28.1c-4.6,0-9.2,0.1-13.8-0.1    c-0.2-3.2,0-6.5-0.1-9.8c0-10.2,0-20.5,0-30.7c0.1-3.2-0.1-6.3,0.1-9.5c2.2-0.3,4.5-0.1,6.7-0.2c2.3,0,4.7-0.1,7,0.1    c0.1,2.2-0.1,4.3,0.1,6.5C204.4,8.9,205.5,7.4,207.1,6.4z"/>
	</g>
	<circle class="st1" cx="246.8" cy="46.8" r="8.1"/>
</g>
<g>
	<path class="st2" d="M269.2,11.6c0,4.2-3.3,7.5-7.6,7.5c-4.2,0-7.6-3.3-7.6-7.5c0-4.1,3.4-7.4,7.6-7.4   C265.9,4.1,269.2,7.4,269.2,11.6z M255.9,11.6c0,3.3,2.4,5.9,5.8,5.9c3.2,0,5.7-2.6,5.7-5.8c0-3.3-2.4-6-5.7-6   C258.3,5.6,255.9,8.3,255.9,11.6z M260.4,15.4h-1.7V8c0.7-0.1,1.6-0.2,2.9-0.2c1.4,0,2,0.2,2.5,0.6c0.4,0.3,0.7,0.9,0.7,1.6   c0,0.8-0.6,1.4-1.6,1.7v0.1c0.7,0.2,1.1,0.8,1.4,1.8c0.2,1.1,0.4,1.6,0.6,1.9h-1.9c-0.2-0.2-0.4-0.9-0.6-1.8   c-0.1-0.8-0.6-1.2-1.6-1.2h-0.8L260.4,15.4L260.4,15.4z M260.5,11.2h0.8c0.9,0,1.7-0.3,1.7-1.1c0-0.7-0.5-1.1-1.6-1.1   c-0.4,0-0.7,0.1-0.9,0.1L260.5,11.2L260.5,11.2z"/>
</g>
</svg>